<svg width="638" height="416" viewBox="0 0 638 416" fill="none" xmlns="http://www.w3.org/2000/svg">
<path d="M45.1208 414.428H613.676C637.065 386.335 642.705 343.257 626.205 310.174C615.057 287.822 596.008 271.424 581.865 251.284C570.598 235.239 561.731 212.954 559.691 193.229C557.559 172.612 560.13 151.746 557.186 131.185C552.046 95.284 528.14 63.027 496.233 47.645C464.327 32.263 425.413 33.865 394.374 51.027C361.535 69.184 338.294 102.719 304.588 119.104C281.452 130.351 255.124 132.587 229.557 131.637C217.24 131.179 204.605 130.064 192.842 133.854C177.214 138.89 165.256 151.932 155.886 165.766C146.516 179.6 138.918 194.79 128.023 207.383C103.707 235.488 63.0838 226.639 38.2428 253.583C18.3408 275.17 18.5618 308.915 23.5568 338.238C28.0048 364.348 35.2558 389.946 45.1208 414.428Z" fill="#FFFCF4"/>
<path d="M416.666 99.5965H553.247C557.919 99.5965 561.707 95.8085 561.707 91.1365V18.6485C561.707 13.9765 557.919 10.1885 553.247 10.1885H438.494C433.822 10.1885 430.034 13.9765 430.034 18.6485V88.3305L416.666 99.5965Z" fill="#FCF9E5"/>
<path d="M548.07 22.8955H444.102V87.0355H548.07V22.8955Z" stroke="white" stroke-width="1.5" stroke-miterlimit="10"/>
<path d="M548.07 22.8955H444.102V35.6985H548.07V22.8955Z" stroke="white" stroke-width="1.5" stroke-miterlimit="10"/>
<path d="M444.102 35.6982V87.0362" stroke="white" stroke-width="1.5" stroke-miterlimit="10"/>
<path d="M470.094 35.6982V87.0362" stroke="white" stroke-width="1.5" stroke-miterlimit="10"/>
<path d="M496.086 35.6982V87.0362" stroke="white" stroke-width="1.5" stroke-miterlimit="10"/>
<path d="M522.078 35.6982V87.0362" stroke="white" stroke-width="1.5" stroke-miterlimit="10"/>
<path d="M548.07 35.6982V87.0362" stroke="white" stroke-width="1.5" stroke-miterlimit="10"/>
<path d="M444.102 61.3672H548.07" stroke="white" stroke-width="1.5" stroke-miterlimit="10"/>
<path d="M488.864 49.1187C488.864 52.3077 486.279 54.8927 483.09 54.8927C479.901 54.8927 477.316 52.3077 477.316 49.1187C477.316 45.9297 479.901 43.3447 483.09 43.3447C486.279 43.3447 488.864 45.9297 488.864 49.1187Z" stroke="#EEECB8" stroke-width="1.5" stroke-miterlimit="10"/>
<path d="M540.011 74.9244C540.011 78.1134 537.426 80.6984 534.237 80.6984C531.048 80.6984 528.463 78.1134 528.463 74.9244C528.463 71.7354 531.048 69.1504 534.237 69.1504C537.426 69.1504 540.011 71.7354 540.011 74.9244Z" stroke="#EEECB8" stroke-width="1.5" stroke-miterlimit="10"/>
<path d="M541.13 41.8311L528.676 54.2841" stroke="#EEECB8" stroke-width="1.5" stroke-miterlimit="10"/>
<path d="M528.676 41.8311L541.13 54.2841" stroke="#EEECB8" stroke-width="1.5" stroke-miterlimit="10"/>
<path d="M515.31 68.6973L502.855 81.1513" stroke="#EEECB8" stroke-width="1.5" stroke-miterlimit="10"/>
<path d="M502.855 68.6973L515.31 81.1513" stroke="#EEECB8" stroke-width="1.5" stroke-miterlimit="10"/>
<path d="M463.325 43.1846L450.871 55.6376" stroke="#EEECB8" stroke-width="1.5" stroke-miterlimit="10"/>
<path d="M450.871 43.1846L463.325 55.6376" stroke="#EEECB8" stroke-width="1.5" stroke-miterlimit="10"/>
<path d="M251.097 94.719H111.329C106.379 94.719 102.367 90.706 102.367 85.756V8.962C102.367 4.012 106.38 0 111.329 0H227.973C232.923 0 236.935 4.013 236.935 8.962V82.784L251.097 94.719Z" fill="#FCF9E5"/>
<path d="M184.18 10.6191H118.334V53.4701H184.18V10.6191Z" fill="white"/>
<path d="M118.334 53.4699L151.257 32.0449L184.18 53.4699" stroke="#F7F0D5" stroke-width="1.5" stroke-miterlimit="10"/>
<path d="M118.334 10.6191L151.257 41.1431L184.18 10.6191" fill="white"/>
<path d="M118.334 10.6191L151.257 41.1431L184.18 10.6191" stroke="#F7F0D5" stroke-width="1.5" stroke-miterlimit="10"/>
<path d="M223.645 39.7236H174.389V71.7776H223.645V39.7236Z" fill="#EEECB8"/>
<path d="M174.389 71.778L199.017 55.751L223.645 71.778" fill="#EEECB8"/>
<path d="M174.389 71.778L199.017 55.751L223.645 71.778" stroke="#E0CA8C" stroke-width="1.5" stroke-miterlimit="10"/>
<path d="M174.389 39.7236L199.017 62.5566L223.645 39.7236" fill="#EEECB8"/>
<path d="M174.389 39.7236L199.017 62.5566L223.645 39.7236" stroke="#E0CA8C" stroke-width="1.5" stroke-miterlimit="10"/>
<path d="M219.667 23.4168C223.976 19.1071 223.976 12.1195 219.667 7.80973C215.357 3.49995 208.369 3.49994 204.059 7.80973C199.75 12.1195 199.75 19.1071 204.059 23.4168C208.369 27.7266 215.357 27.7266 219.667 23.4168Z" fill="#EEECB8"/>
<path d="M210.129 21.3137C210.129 20.6917 210.299 20.2547 210.64 20.0037C210.981 19.7527 211.393 19.6267 211.876 19.6267C212.346 19.6267 212.751 19.7527 213.092 20.0037C213.433 20.2547 213.603 20.6917 213.603 21.3137C213.603 21.9097 213.433 22.3397 213.092 22.6047C212.751 22.8697 212.346 23.0017 211.876 23.0017C211.393 23.0017 210.981 22.8697 210.64 22.6047C210.3 22.3397 210.129 21.9097 210.129 21.3137ZM213.097 17.9197H210.675L210.169 8.22266H213.603L213.097 17.9197Z" fill="white"/>
<path d="M118.334 65.7529H156.572" stroke="white" stroke-width="1.5" stroke-miterlimit="10"/>
<path d="M118.334 72.9189H156.572" stroke="white" stroke-width="1.5" stroke-miterlimit="10"/>
<path d="M118.334 80.085H139.835" stroke="white" stroke-width="1.5" stroke-miterlimit="10"/>
<path d="M413.883 155.377H468.643C469.717 155.377 470.588 154.506 470.588 153.432V136.765C470.588 135.691 469.717 134.82 468.643 134.82H421.778C420.704 134.82 419.833 135.691 419.833 136.765V151.628L413.883 155.377Z" fill="white"/>
<path d="M427.305 142.134H462.535" stroke="#F7F0D5" stroke-width="1.5" stroke-miterlimit="10"/>
<path d="M427.305 148.063H451.459" stroke="#F7F0D5" stroke-width="1.5" stroke-miterlimit="10"/>
<path d="M204.134 126.159H186.582C182.299 126.159 178.828 122.687 178.828 118.405C178.828 114.122 182.3 110.651 186.582 110.651H204.134C208.417 110.651 211.888 114.123 211.888 118.405C211.888 122.687 208.416 126.159 204.134 126.159Z" stroke="#F7F0D5" stroke-width="1.5" stroke-miterlimit="10"/>
<path d="M403.111 27.3801H385.559C381.276 27.3801 377.805 23.9081 377.805 19.6261C377.805 15.3431 381.277 11.8721 385.559 11.8721H403.111C407.394 11.8721 410.865 15.3441 410.865 19.6261C410.865 23.9091 407.394 27.3801 403.111 27.3801Z" stroke="#F7F0D5" stroke-width="1.5" stroke-miterlimit="10"/>
<path d="M480.347 284.999H462.795C458.512 284.999 455.041 281.527 455.041 277.245C455.041 272.962 458.513 269.491 462.795 269.491H480.347C484.63 269.491 488.101 272.963 488.101 277.245C488.101 281.527 484.629 284.999 480.347 284.999Z" stroke="#F7F0D5" stroke-width="1.5" stroke-miterlimit="10"/>
<path d="M431.872 17.1164H393.992C389.709 17.1164 386.238 13.6444 386.238 9.3624C386.238 5.0794 389.71 1.6084 393.992 1.6084H431.872C436.155 1.6084 439.626 5.0804 439.626 9.3624C439.626 13.6454 436.155 17.1164 431.872 17.1164Z" stroke="#F7F0D5" stroke-width="1.5" stroke-miterlimit="10"/>
<path d="M407.447 131.424L401.17 137.701" stroke="#F7F0D5" stroke-width="1.5" stroke-miterlimit="10"/>
<path d="M401.17 131.424L407.447 137.701" stroke="#F7F0D5" stroke-width="1.5" stroke-miterlimit="10"/>
<path d="M250.421 267.787L244.143 274.064" stroke="#F7F0D5" stroke-width="1.5" stroke-miterlimit="10"/>
<path d="M244.143 267.787L250.421 274.064" stroke="#F7F0D5" stroke-width="1.5" stroke-miterlimit="10"/>
<path d="M599.89 75.5947L593.613 81.8717" stroke="#F7F0D5" stroke-width="1.5" stroke-miterlimit="10"/>
<path d="M593.613 75.5947L599.89 81.8717" stroke="#F7F0D5" stroke-width="1.5" stroke-miterlimit="10"/>
<path d="M442.765 244.697L436.488 250.975" stroke="#F7F0D5" stroke-width="1.5" stroke-miterlimit="10"/>
<path d="M436.488 244.697L442.765 250.975" stroke="#F7F0D5" stroke-width="1.5" stroke-miterlimit="10"/>
<path d="M118.325 118.931L112.047 125.209" stroke="#F7F0D5" stroke-width="1.5" stroke-miterlimit="10"/>
<path d="M112.047 118.931L118.325 125.209" stroke="#F7F0D5" stroke-width="1.5" stroke-miterlimit="10"/>
<path d="M522.852 109.179H571.973" stroke="#F7F0D5" stroke-width="1.5" stroke-miterlimit="10"/>
<path d="M91.9141 4.57617H141.034" stroke="#F7F0D5" stroke-width="1.5" stroke-miterlimit="10"/>
<path d="M256.49 37.0615H283.004" stroke="#F7F0D5" stroke-width="1.5" stroke-miterlimit="10"/>
<path d="M235.324 237.138H261.838" stroke="#F7F0D5" stroke-width="1.5" stroke-miterlimit="10"/>
<path d="M292.596 37.0615H331.137" stroke="#F7F0D5" stroke-width="1.5" stroke-miterlimit="10"/>
<path d="M513.75 400.626V414.781" stroke="#EEECB8" stroke-width="1.5" stroke-miterlimit="10" stroke-linejoin="round"/>
<path d="M590.309 400.626V414.781" stroke="#EEECB8" stroke-width="1.5" stroke-miterlimit="10" stroke-linejoin="round"/>
<path d="M550.334 400.626V414.781" stroke="#EEECB8" stroke-width="1.5" stroke-miterlimit="10" stroke-linejoin="round"/>
<path d="M626.893 400.626V414.781" stroke="#EEECB8" stroke-width="1.5" stroke-miterlimit="10" stroke-linejoin="round"/>
<path d="M596.751 203.728H508.746V404.63H596.751V203.728Z" fill="white"/>
<path d="M596.753 404.63H633.346V203.728H596.753V404.63Z" fill="#FCF9E5"/>
<path d="M551.452 221.933C553.682 221.933 555.49 220.126 555.49 217.895C555.49 215.665 553.682 213.857 551.452 213.857C549.222 213.857 547.414 215.665 547.414 217.895C547.414 220.126 549.222 221.933 551.452 221.933Z" stroke="#EEECB8" stroke-width="1.5" stroke-miterlimit="10" stroke-linejoin="round"/>
<path d="M508.746 253.953H633.345" stroke="#EEECB8" stroke-width="1.5" stroke-miterlimit="10" stroke-linejoin="round"/>
<path d="M551.452 270.925C553.682 270.925 555.49 269.117 555.49 266.887C555.49 264.657 553.682 262.849 551.452 262.849C549.222 262.849 547.414 264.657 547.414 266.887C547.414 269.117 549.222 270.925 551.452 270.925Z" stroke="#EEECB8" stroke-width="1.5" stroke-miterlimit="10" stroke-linejoin="round"/>
<path d="M508.746 304.179H633.345" stroke="#EEECB8" stroke-width="1.5" stroke-miterlimit="10" stroke-linejoin="round"/>
<path d="M551.452 319.918C553.682 319.918 555.49 318.11 555.49 315.88C555.49 313.65 553.682 311.842 551.452 311.842C549.222 311.842 547.414 313.65 547.414 315.88C547.414 318.11 549.222 319.918 551.452 319.918Z" stroke="#EEECB8" stroke-width="1.5" stroke-miterlimit="10" stroke-linejoin="round"/>
<path d="M508.746 354.404H633.345" stroke="#EEECB8" stroke-width="1.5" stroke-miterlimit="10" stroke-linejoin="round"/>
<path d="M551.452 368.91C553.682 368.91 555.49 367.102 555.49 364.872C555.49 362.642 553.682 360.834 551.452 360.834C549.222 360.834 547.414 362.642 547.414 364.872C547.414 367.102 549.222 368.91 551.452 368.91Z" stroke="#EEECB8" stroke-width="1.5" stroke-miterlimit="10" stroke-linejoin="round"/>
<path d="M610.849 202.905H528.494V184.934H610.849C615.812 184.934 619.834 188.957 619.834 193.919C619.834 198.882 615.811 202.905 610.849 202.905Z" fill="#FCDE9D"/>
<path d="M581.746 185.438C586.43 185.438 590.227 189.235 590.227 193.919C590.227 198.603 586.43 202.4 581.746 202.4" stroke="#FBD127" stroke-miterlimit="10"/>
<path d="M581.627 188.122H528.492V199.717H581.627C584.829 199.717 587.424 197.121 587.424 193.92C587.425 190.718 584.829 188.122 581.627 188.122Z" fill="white"/>
<path d="M600.964 184.933H518.609V166.962H600.964C605.927 166.962 609.949 170.985 609.949 175.947C609.95 180.91 605.927 184.933 600.964 184.933Z" fill="#EA7A4E"/>
<path d="M571.863 167.466C576.547 167.466 580.344 171.263 580.344 175.947C580.344 180.631 576.547 184.428 571.863 184.428" stroke="#CD5A36" stroke-miterlimit="10"/>
<path d="M571.73 170.15H518.596V181.745H571.73C574.932 181.745 577.527 179.149 577.527 175.948C577.527 172.746 574.932 170.15 571.73 170.15Z" fill="white"/>
<path d="M607.474 166.962H525.119V148.991H607.474C612.436 148.991 616.459 153.014 616.459 157.976C616.46 162.939 612.437 166.962 607.474 166.962Z" fill="#FCF9E5"/>
<path d="M578.373 149.495C583.057 149.495 586.854 153.292 586.854 157.976C586.854 162.66 583.057 166.457 578.373 166.457" stroke="#EAE3BB" stroke-miterlimit="10"/>
<path d="M578.255 152.18H525.121V163.775H578.255C581.457 163.775 584.052 161.179 584.052 157.978C584.052 154.776 581.456 152.18 578.255 152.18Z" fill="white"/>
<path d="M365.025 287.266H267.277C267.277 280 273.167 274.11 280.433 274.11H351.869C359.135 274.11 365.025 280 365.025 287.266Z" fill="#EEECB8"/>
<path d="M316.15 287.267V407.088" stroke="#EDDF79" stroke-width="1.5" stroke-miterlimit="10"/>
<path d="M316.151 402.625C299.328 409.134 283.664 407.087 280.879 414.781H351.422C348.638 407.087 332.974 409.134 316.151 402.625Z" fill="#EEECB8"/>
<path d="M361.573 116.426C357.949 113.186 352.924 111.409 348.121 112.16C348.382 107.734 347.517 103.129 344.994 99.4843C342.471 95.8393 338.129 93.3153 333.708 93.6413C323.468 91.3163 313.227 88.9913 302.987 86.6663C295.695 85.0103 288.056 82.0393 280.416 83.9163C274.393 85.3953 268.735 90.6153 268.071 96.9713C267.639 101.107 268.334 102.528 269.479 106.107C265.732 105.639 262.542 106.393 257.869 107.877C246.05 111.629 237.998 124.988 240.584 137.229C243.645 151.723 259.072 161.606 273.495 162.315C275.006 165.741 277.414 168.835 280.358 171.142C286.514 175.966 294.549 177.809 302.367 178.059C308.933 178.269 315.742 177.374 321.372 173.988C325.71 171.38 329.064 167.284 330.989 162.608C341.611 161.335 351.797 156.479 359.486 149.043C368.476 140.347 371.968 125.719 361.573 116.426Z" fill="#381A04"/>
<path d="M293.646 84.4569C285.879 81.2159 275.309 81.9569 269.299 88.2129C263.374 94.3799 263.085 104.184 267.947 111.013" stroke="#381A04" stroke-miterlimit="10"/>
<path d="M275.122 103.657C267.003 99.4601 256.126 102.557 249.108 107.621C241.227 113.307 236.591 122.789 237.735 133.01C239.684 150.414 257.267 161.75 273.117 161.272" stroke="#381A04" stroke-miterlimit="10"/>
<path d="M334.361 93.1055C342.742 93.1925 351.041 97.9865 354.177 105.194C357.313 112.402 354.605 121.59 347.57 125.814" stroke="#381A04" stroke-miterlimit="10"/>
<path d="M339.122 92.9436C339.027 90.6626 339.01 88.3756 338.939 86.0926C338.868 83.8166 338.789 81.5406 338.701 79.2656C338.614 77.0196 338.836 74.4636 338.391 72.2616C337.705 68.8696 335.275 65.6386 332.396 63.8026C328.495 61.3146 323.767 61.3566 319.403 62.4006C317.057 62.9616 314.321 63.7796 312.463 65.3686C303.045 73.4246 304.227 88.3066 310.459 97.5936C313.442 102.039 319.568 105.208 324.831 105.585C329.841 105.944 336.383 104.527 338.478 99.2796C339.267 97.3046 339.221 95.2006 339.13 93.1206C339.127 93.0626 339.124 93.0026 339.122 92.9436Z" fill="#BC6344"/>
<path d="M303.703 89.6719L292.73 115.521L284.682 120.764L324.432 155.026L332.723 121.008L324.797 115.643L328.455 98.9379" fill="#BC6344"/>
<path d="M291.615 88.0002C289.05 73.7892 297.307 62.4512 309.22 58.3842C320.063 54.6822 328.18 56.4552 334.259 63.0412C339.991 69.2512 338.68 76.6492 338.68 76.6492C333.249 75.6742 327.875 72.5672 324.447 68.1422C324.287 70.2202 321.532 74.1562 320.062 75.5972C315.378 80.1912 312.536 82.6542 306.741 84.8132L298.897 100.988L291.615 88.0002Z" fill="#381A04"/>
<path d="M319.465 65.4775C318.044 68.9705 316.614 72.4835 314.574 75.6955C312.534 78.9075 309.832 81.8365 306.361 83.6835" stroke="#5B3318" stroke-miterlimit="10"/>
<path d="M314.561 101.392C317.239 103.913 320.649 105.524 324.189 105.94C325.084 106.045 325.985 106.076 326.885 106.106" stroke="#2A282C" stroke-miterlimit="10" stroke-linejoin="round"/>
<path d="M331.137 82.2041C331.292 83.8731 331.539 85.4291 332.22 86.9711C332.819 88.3291 334.382 90.5911 333.652 92.1291C333.243 92.9901 331.928 92.9011 331.138 92.9011" stroke="#2A282C" stroke-miterlimit="10" stroke-linejoin="round"/>
<path d="M318.721 80.6577C320.236 79.2247 323.403 78.9897 325.962 80.6577" stroke="#2A282C" stroke-miterlimit="10" stroke-linejoin="round"/>
<path d="M325.533 86.439C325.533 87.256 325.088 87.918 324.538 87.918C323.988 87.918 323.543 87.256 323.543 86.439C323.543 85.622 323.988 84.96 324.538 84.96C325.088 84.96 325.533 85.622 325.533 86.439Z" fill="#2A282C"/>
<path d="M338.062 85.6821C338.062 86.4991 337.617 87.1611 337.067 87.1611C336.517 87.1611 336.072 86.4991 336.072 85.6821C336.072 84.8651 336.517 84.2031 337.067 84.2031C337.616 84.2031 338.062 84.8651 338.062 85.6821Z" fill="#2A282C"/>
<path d="M334.254 80.5066C335.387 79.4886 338.033 78.4356 339.094 80.1236" stroke="#2A282C" stroke-miterlimit="10" stroke-linejoin="round"/>
<path d="M327.953 93.8701C327.23 95.2921 327.67 97.2091 329.38 97.5761C330.5 97.8161 331.978 97.4041 332.588 96.3771" stroke="#2A282C" stroke-miterlimit="10" stroke-linejoin="round"/>
<path d="M316.18 84.6631C315.866 85.9801 322.991 91.4381 325.402 90.5651C327.812 89.6931 329.384 84.6441 328.965 83.9201C328.546 83.1961 316.635 82.7591 316.18 84.6631Z" stroke="#FBD127" stroke-miterlimit="10"/>
<path d="M343.293 82.884C343.74 84.15 338.757 90.399 336.677 89.823C334.596 89.247 332.587 84.44 332.822 83.673C333.057 82.906 342.647 81.054 343.293 82.884Z" stroke="#FBD127" stroke-miterlimit="10"/>
<path d="M329.033 84.2759L332.721 84.1299" stroke="#FBD127" stroke-miterlimit="10"/>
<path d="M316.18 84.6626L307.625 83.6816" stroke="#FBD127" stroke-miterlimit="10"/>
<path d="M309.94 85.6648C309.528 83.7138 308.15 81.6138 306.085 81.1658C304.126 80.7408 302.155 82.0468 301.373 83.8098C300.299 86.2308 300.585 89.2598 301.689 91.6168C302.815 94.0218 305.433 96.3608 308.239 95.1598C309.3 94.7058 310.148 93.8068 310.476 92.6938" fill="#BC6344"/>
<path d="M304.291 85.2705C305.777 86.9495 307.162 88.7185 308.433 90.5645" stroke="#2A282C" stroke-miterlimit="10" stroke-linejoin="round"/>
<path d="M308.457 82.5703C309.196 83.5893 309.732 84.7553 310.022 85.9803" stroke="#2A282C" stroke-miterlimit="10" stroke-linejoin="round"/>
<path d="M310.223 93.6419C309.621 94.4819 308.711 95.0959 307.707 95.3399C305.788 95.8059 303.757 94.8449 302.49 93.4209" stroke="#2A282C" stroke-miterlimit="10" stroke-linejoin="round"/>
<path d="M364.345 402.127C370.153 405.088 393.672 401.86 393.672 401.86C389.727 399.992 381.346 393.654 377.988 390.789C374.722 388.003 374.269 376.131 374.132 372.033C358.65 371.18 330.057 369.889 330.057 369.889L329.727 389.19C334.307 390.159 358.537 399.166 364.345 402.127Z" fill="#BC6344"/>
<path d="M405.081 407.919C401.206 404.328 391.836 400.868 391.836 400.868C391.836 400.868 376.668 403.683 364.017 399.098C357.888 396.877 350.079 392.176 346.054 390.344C340.001 387.59 329.414 386.826 329.414 386.826C328.473 396.559 330.698 414.429 330.698 414.429H343.764L343.785 399.18C343.785 399.18 347.846 401.354 350.627 404.391C353.386 407.403 354.103 414.429 362.158 414.429H408.618C408.618 414.429 408.106 410.721 405.081 407.919Z" fill="#2B1A12"/>
<path d="M333.538 264.31C335.679 277.09 334.89 290.383 331.255 302.797C329.128 310.059 326.057 316.986 323.611 324.14C317.926 340.771 308.136 359.619 308.703 377.421L376.095 384.122C376.095 384.122 387.26 284.419 389.303 268.237C391.346 252.056 388.045 225.474 362.933 225.474C337.821 225.474 321.824 225.474 321.824 225.474" fill="#4F2D31"/>
<path d="M359.35 381.947C359.35 381.947 362.987 359.346 364.961 345.13C368.901 316.749 371.968 287.409 374.587 261.304C375.27 254.495 375.864 247.208 372.587 241.201C370.135 236.704 365.837 233.562 361.662 230.594" stroke="#824E58" stroke-miterlimit="10"/>
<path d="M461.832 383.143C468.129 384.827 490.459 376.765 490.459 376.765C484.681 375.399 467.1 366.087 464.623 364.252C460.944 361.527 451.951 345.129 451.951 345.129L417.707 359.567C421.802 368.238 424.3 377.919 424.3 377.919C428.981 377.913 455.535 381.459 461.832 383.143Z" fill="#BC6344"/>
<path d="M502.882 380.311C498.343 377.607 488.266 376.25 488.266 376.25C488.266 376.25 474.211 382.095 460.882 380.249C454.425 379.355 444.829 376.595 440.51 375.643C434.016 374.212 423.502 375.674 423.502 375.674C424.612 385.389 433.57 401.751 433.57 401.751L446.349 399.026L440.134 384.759C440.134 384.759 445.537 385.829 448.891 388.22C452.217 390.59 454.384 397.312 462.262 395.632L507.7 385.941C507.7 385.941 506.424 382.421 502.882 380.311Z" fill="#2B1A12"/>
<path d="M274.595 216.368C274.595 216.368 268.687 246.563 271.313 256.409C273.939 266.255 276.798 274.11 294.225 274.11C311.652 274.11 356.14 274.11 367.793 274.11C379.445 274.11 372.344 354.431 397.001 384.121L457.08 353.558C457.08 353.558 415.788 258.419 409.224 248.797C402.66 239.175 396.362 226.43 374.7 226.43C353.038 226.43 326.87 226.43 326.87 226.43" fill="#4F2D31"/>
<path d="M335.078 274.11C352.505 274.11 356.14 274.11 367.793 274.11C375.487 274.11 375.004 309.133 380.888 341.474" stroke="#1F1D21" stroke-miterlimit="10" stroke-linejoin="round"/>
<path d="M294.268 225.304C291.992 235.277 305.458 236.156 312.133 236.186C327.558 236.256 343.001 236.053 358.431 235.97C366.905 235.924 376.186 236.073 384.172 239.7C393.334 243.861 398.99 252.842 403.086 261.672C410.693 278.069 447.356 358.504 447.356 358.504" stroke="#824E58" stroke-miterlimit="10"/>
<path d="M368.609 274.195C371.871 274.375 375.111 274.961 378.23 275.935" stroke="#1F1D21" stroke-miterlimit="10" stroke-linejoin="round"/>
<path d="M390.855 284.945C399.182 292.247 408.205 298.756 417.761 304.355" stroke="#1F1D21" stroke-miterlimit="10" stroke-linejoin="round"/>
<path d="M401.502 304.179C406.738 309.658 412.388 314.74 418.388 319.37" stroke="#1F1D21" stroke-miterlimit="10" stroke-linejoin="round"/>
<path d="M375.364 116.308L373.961 110.124L350.627 116.843L352.827 128.067" fill="white"/>
<path d="M375.216 114.215L350.201 121.601L353.795 137.505C353.795 137.505 347.769 130.093 344.882 126.492C342.256 123.216 333.012 119.397 333.012 119.397L345.612 173.247C345.612 173.247 354.96 180.781 363.859 186.394C371.859 191.44 381.889 196.561 388.776 189.415C393.044 184.986 396.457 174.083 392.751 161.142C386.516 139.367 375.216 114.215 375.216 114.215Z" fill="#FBD127"/>
<path d="M291.146 112.614L314.292 131.406L321.311 142.642V130.455L328.141 117.908L340.293 133.227C340.293 133.227 350.472 199.009 351.999 202.89C353.526 206.771 364.957 225.474 364.957 225.474H276.419L267.277 129.155L291.146 112.614Z" fill="#FFFCF4"/>
<path d="M344.224 140.8C353.654 163.274 349.582 175.872 354.591 199.725C356.398 208.33 364.958 225.474 364.958 225.474C344.915 226.281 338.761 173.577 333.883 147.917C332.304 139.613 329.848 123.243 328.195 114.953L339.947 124.66L344.224 140.8Z" fill="#FBD127"/>
<path d="M293.568 106.938L314.292 131.408L296.178 144.622L284.68 116.073L293.568 106.938Z" fill="#FFFCF4"/>
<path d="M314.292 131.407L296.178 144.621L284.68 116.072" stroke="#A56F21" stroke-miterlimit="10" stroke-linejoin="round"/>
<path d="M326.58 113.761L321.312 130.456L335.078 141.502L334.267 118.406L326.58 113.761Z" fill="#FFFCF4"/>
<path d="M321.312 130.455L335.078 141.501L334.267 118.405" stroke="#A56F21" stroke-miterlimit="10" stroke-linejoin="round"/>
<path d="M364.166 101.852C362.812 101.077 362.107 100.68 360.586 100.273C357.029 99.3203 355.005 99.5623 351.339 99.9083C348.782 100.149 344.814 101.1 342.429 102.053C336.05 104.602 332.461 111.564 332.788 117.943C332.813 118.438 332.941 119.459 333.205 119.878C333.469 120.298 333.934 120.079 334.394 119.894C334.783 119.737 335.095 119.059 335.263 118.675C336.245 116.432 336.661 113.569 337.998 112.119C337.656 113.309 337.412 114.618 337.533 115.851C337.651 117.048 338.332 118.333 339.523 118.751C339.79 118.845 340.078 118.894 340.316 119.048C340.639 119.256 340.819 119.62 341.065 119.914C341.624 120.583 342.585 120.886 343.427 120.659C343.766 122.267 344.104 123.875 344.443 125.483C344.52 125.848 344.61 126.237 344.883 126.491C345.222 126.806 345.774 126.813 346.178 126.587C346.582 126.361 346.85 125.944 346.999 125.506C347.537 123.924 346.718 122.008 347.607 120.593C347.989 119.984 348.627 119.588 349.249 119.227C356.543 114.996 364.741 112.611 372.889 110.439C370.645 106.997 367.699 103.874 364.166 101.852Z" fill="#BC6344"/>
<path d="M360.586 114.181C362.696 112.582 365.046 111.179 367.047 109.461" stroke="#2A282C" stroke-miterlimit="10" stroke-linejoin="round"/>
<path d="M343.63 120.647C343.287 119.25 343.725 117.777 344.346 116.48C345.157 114.786 346.291 113.247 347.667 111.97" stroke="#2A282C" stroke-miterlimit="10" stroke-linejoin="round"/>
<path d="M340.151 118.676C339.614 115.323 340.764 111.794 343.245 109.179" stroke="#2A282C" stroke-miterlimit="10" stroke-linejoin="round"/>
<path d="M338.496 111.97C339.046 109.315 340.051 107.727 341.399 105.639" stroke="#2A282C" stroke-miterlimit="10" stroke-linejoin="round"/>
<path d="M321.966 108.641L321.58 110.604L337.676 113.768L338.061 111.805L321.966 108.641Z" fill="#F99C6E"/>
<path d="M318.635 108.923L321.58 110.596L321.965 108.633L318.635 108.923Z" fill="#F9CDA5"/>
<path d="M319.916 108.812L319.766 109.565L318.635 108.923L319.916 108.812Z" fill="#2A282C"/>
<path d="M353.795 137.504L362.985 175.833" stroke="#2A282C" stroke-miterlimit="10" stroke-linejoin="round"/>
<path d="M351.567 180.213C351.931 174.155 352.294 168.073 351.821 162.022C351.348 155.971 350.007 149.911 347.141 144.561" stroke="#2A282C" stroke-miterlimit="10" stroke-linejoin="round"/>
<path d="M321.312 142.644C321.312 142.644 324.878 159.333 326.885 170.215C330.359 189.053 334.509 207.38 339.948 225.747" stroke="#A56F21" stroke-miterlimit="10" stroke-linejoin="round"/>
<path d="M318.635 147.923C319.415 147.923 320.047 147.29 320.047 146.511C320.047 145.731 319.415 145.099 318.635 145.099C317.855 145.099 317.223 145.731 317.223 146.511C317.223 147.29 317.855 147.923 318.635 147.923Z" fill="#A56F21"/>
<path d="M323.377 171.205C324.157 171.205 324.789 170.573 324.789 169.793C324.789 169.013 324.157 168.381 323.377 168.381C322.597 168.381 321.965 169.013 321.965 169.793C321.965 170.573 322.597 171.205 323.377 171.205Z" fill="#A56F21"/>
<path d="M327.721 196.026C328.5 196.026 329.133 195.394 329.133 194.614C329.133 193.834 328.5 193.202 327.721 193.202C326.941 193.202 326.309 193.834 326.309 194.614C326.309 195.394 326.941 196.026 327.721 196.026Z" fill="#A56F21"/>
<path d="M333.666 219.871C334.446 219.871 335.078 219.239 335.078 218.459C335.078 217.679 334.446 217.047 333.666 217.047C332.886 217.047 332.254 217.679 332.254 218.459C332.254 219.239 332.886 219.871 333.666 219.871Z" fill="#A56F21"/>
<path d="M326.707 180.339C338.034 177.074 353.205 172.573 362.824 179.392C364.45 180.544 365.918 181.979 367.365 183.428C369.472 185.539 371.544 187.7 373.578 189.909C374.1 190.476 374.669 191.198 374.557 191.999C373.118 193.2 371.066 192.871 369.396 192.002C367.726 191.132 366.242 189.791 364.553 188.979C366.767 192.214 367.533 196.405 368.23 200.418C368.266 200.627 368.301 200.854 368.221 201.04C368.144 201.222 367.974 201.322 367.807 201.381C367.14 201.619 366.346 201.355 365.86 200.734C365.19 201.945 363.537 201.707 362.494 200.84C361.451 199.973 359.658 198.347 358.596 197.513C359.187 198.647 361.076 201.446 360.548 201.969C360.02 202.491 358.136 202.312 356.752 201.05C355.524 199.931 354.663 198.788 353.394 197.759C352.385 196.941 347.884 195.192 345.504 197.105C341.159 200.598 336.827 200.313 331.387 200.405" fill="#BC6344"/>
<path d="M349.922 190.493C351.688 191.269 353.485 192.09 354.945 193.44C356.493 194.872 357.863 196.594 359.073 198.355" stroke="#2A282C" stroke-miterlimit="10" stroke-linejoin="round"/>
<path d="M354.496 187.143C357.777 188.919 360.63 191.386 362.786 194.31C364.187 196.21 365.859 200.734 365.859 200.734" stroke="#2A282C" stroke-miterlimit="10" stroke-linejoin="round"/>
<path d="M358.594 183.373C360.955 185.123 363.106 187.156 364.985 189.415" stroke="#2A282C" stroke-miterlimit="10" stroke-linejoin="round"/>
<path d="M322.336 181.328L333.626 178.646L344.915 206.474L323.917 213.074" fill="white"/>
<path d="M322.336 181.328L333.626 178.646L344.915 206.474L323.917 213.074" stroke="#2A282C" stroke-miterlimit="10" stroke-linejoin="round"/>
<path d="M282.096 117.908C288.351 126.985 293.688 136.235 299.194 151.069C304.442 165.206 307.135 177.674 308.803 192.271C312.029 220.488 295.435 247.222 268.675 256.736C268.675 256.736 274.187 200.356 273.991 196.421C273.794 192.487 261.992 137.605 261.992 137.605L282.096 117.908Z" fill="#FBD127"/>
<path d="M282.096 117.908C275.243 120.873 265.479 126.085 261.812 132.589C256.423 142.146 256.696 150.116 257.542 160.661C258.629 174.209 262.593 192.19 266.736 205.099C269.301 213.093 271.956 222.055 280.602 224.516C290.79 227.416 302.629 223.099 312.761 219.951C323.312 216.672 340.061 210.942 340.061 210.942L328.886 178.995L295.842 186.229L283.636 148.978" fill="#FBD127"/>
<path d="M308.886 183.374L295.843 186.23L283.637 148.979" stroke="#2A282C" stroke-miterlimit="10" stroke-linejoin="round"/>
<path d="M266.736 205.1C269.301 213.094 271.956 222.056 280.602 224.517C288.243 226.692 296.813 224.807 304.894 222.401" stroke="#2A282C" stroke-miterlimit="10" stroke-linejoin="round"/>
<path d="M336.306 200.204L323.312 204.477" stroke="#2A282C" stroke-miterlimit="10" stroke-linejoin="round"/>
<path d="M329.182 194.36L331.134 199.207" stroke="#2A282C" stroke-miterlimit="10" stroke-linejoin="round"/>
<path d="M322.336 196.026L324.289 200.873" stroke="#2A282C" stroke-miterlimit="10" stroke-linejoin="round"/>
<path d="M296.167 186.229C292.967 186.783 289.878 188.163 287.092 190.282" stroke="#2A282C" stroke-miterlimit="10" stroke-linejoin="round"/>
<path d="M468.443 94.9824L512.316 137.756" stroke="#D1C35C" stroke-width="2" stroke-miterlimit="10"/>
<path d="M461.207 96.4824L474.283 106.571C474.283 106.571 481.771 96.0204 475.642 91.2914C469.512 86.5624 461.207 96.4824 461.207 96.4824Z" fill="#D1C35C"/>
<path d="M456.429 131.059C463.489 130.161 468.485 123.71 467.587 116.65C466.69 109.59 460.239 104.594 453.178 105.491C446.118 106.389 441.122 112.84 442.02 119.9C442.917 126.96 449.368 131.956 456.429 131.059Z" fill="#FCDE9D"/>
<path d="M438.895 101.729L474.868 129.484C474.868 129.484 486.127 112.567 469.265 99.5561C452.403 86.5461 438.895 101.729 438.895 101.729Z" fill="#EDDF79"/>
<path d="M475.859 94.9824L519.733 137.756" stroke="#D1C35C" stroke-width="2" stroke-miterlimit="10"/>
<path d="M486.514 223.144L513.567 137.757" stroke="#D1C35C" stroke-width="2" stroke-miterlimit="10"/>
<path d="M491.836 223.144L519.734 137.757" stroke="#D1C35C" stroke-width="2" stroke-miterlimit="10"/>
<path d="M519.085 144.56H512.788C510.49 144.56 508.627 142.697 508.627 140.399C508.627 138.101 510.49 136.238 512.788 136.238H519.085C521.383 136.238 523.246 138.101 523.246 140.399C523.246 142.698 521.383 144.56 519.085 144.56Z" fill="#D1C35C"/>
<path d="M501.647 214.562H474.432V226.158H501.647V214.562Z" fill="#EDDF79"/>
<path d="M501.648 226.156H512.85V214.561H501.648V226.156Z" fill="#D1C35C"/>
<path d="M262.033 179.624H187.916V226.157H262.033V179.624Z" fill="white"/>
<path d="M262.032 226.156H300.064V179.623H262.032V226.156Z" fill="#FCF9E5"/>
<path d="M242.055 164.449H167.938V179.623H242.055V164.449Z" fill="white"/>
<path d="M242.054 179.624H280.086V164.45H242.054V179.624Z" fill="#FCF9E5"/>
<path d="M252.546 193.202H217.596L243.003 206.975L252.546 193.202Z" fill="#FCF9E5"/>
<path d="M270.555 206.976L279.144 215.287L295.448 206.976H270.555Z" fill="white"/>
<path d="M259.83 193.096H203.125" stroke="#FCF9E5" stroke-width="1.5" stroke-miterlimit="10"/>
<path d="M233.726 216.368H194.238" stroke="#FCF9E5" stroke-width="1.5" stroke-miterlimit="10"/>
<path d="M262.033 206.976H298.141" stroke="#F2EDCE" stroke-width="1.5" stroke-miterlimit="10"/>
<path d="M187.916 180.212H300.065" stroke="#F2EDCE" stroke-width="1.5" stroke-miterlimit="10"/>
<path d="M177.598 171.205H242.054" stroke="#FCF9E5" stroke-width="1.5" stroke-miterlimit="10"/>
<path d="M274.19 171.205H242.055" stroke="#F2EDCE" stroke-width="1.5" stroke-miterlimit="10"/>
<path d="M474.53 162.29H395.987C393.956 162.29 392.139 163.708 391.433 165.845L372.702 222.505H318.971C317.038 222.505 315.471 224.263 315.471 226.432H457.166L477.035 166.331C477.682 164.372 476.391 162.29 474.53 162.29Z" fill="#D1C35C"/>
<path d="M461.033 226.431H375.27L395.299 165.844C396.005 163.707 397.822 162.289 399.853 162.289H478.396C480.258 162.289 481.549 164.372 480.901 166.33L461.033 226.431Z" fill="#EDDF79"/>
<path d="M438.248 195.318C438.248 198.016 435.658 200.204 432.464 200.204C429.27 200.204 426.68 198.016 426.68 195.318C426.68 192.619 429.27 190.432 432.464 190.432C435.658 190.432 438.248 192.62 438.248 195.318Z" fill="#D1C35C"/>
<path d="M462.447 223.211H449.726C447.652 223.211 445.971 221.53 445.971 219.456V197.544H466.203V219.456C466.203 221.53 464.521 223.211 462.447 223.211Z" fill="#F99C6E"/>
<path d="M463.391 220.537H448.781V225.526H463.391V220.537Z" fill="#F99C6E"/>
<path d="M467.832 217.234H459.959V202.904H467.832C469.896 202.904 471.568 204.577 471.568 206.64V213.497C471.569 215.561 469.896 217.234 467.832 217.234Z" stroke="#F99C6E" stroke-width="2" stroke-miterlimit="10"/>
<path d="M448.781 223.031H463.391" stroke="#EA7A4E" stroke-miterlimit="10"/>
<path d="M181.301 226.156H529.714" stroke="#2A282C" stroke-width="1.5" stroke-miterlimit="10" stroke-linejoin="round"/>
<path d="M197.777 226.28L253.531 414.781" stroke="#2A282C" stroke-width="1.5" stroke-miterlimit="10" stroke-linejoin="round"/>
<path d="M231.246 226.28L175.492 414.781" stroke="#2A282C" stroke-width="1.5" stroke-miterlimit="10" stroke-linejoin="round"/>
<path d="M483.592 226.28L539.346 414.781" stroke="#2A282C" stroke-width="1.5" stroke-miterlimit="10" stroke-linejoin="round"/>
<path d="M517.062 226.28L461.307 414.781" stroke="#2A282C" stroke-width="1.5" stroke-miterlimit="10" stroke-linejoin="round"/>
<path d="M154.786 120.44C152.891 118.248 150.06 117.326 145.973 118.879C138.604 121.678 133.199 130.75 130.297 137.665C126.099 147.666 124.274 158.475 122.482 169.173C119.734 185.574 116.985 201.976 114.236 218.377C113.648 221.885 113.168 225.857 115.35 228.666C116.875 230.629 119.514 231.568 121.985 231.295C124.455 231.022 126.727 229.636 128.345 227.749C130.469 225.273 131.497 222.067 132.474 218.954C137.892 201.69 143.31 184.425 148.728 167.161C149.696 164.077 150.664 160.994 151.631 157.91C153.631 151.538 156.271 145.345 157.604 138.778C158.622 133.759 158.47 124.701 154.786 120.44Z" fill="#7E9B6E"/>
<path d="M150.223 124.221C126.612 175.666 116.046 233.163 113.971 289.73" stroke="#54683C" stroke-width="1.5" stroke-miterlimit="10" stroke-linejoin="round"/>
<path d="M206.614 155.829C195.561 140.211 168.67 167.337 161.98 175.368C152.134 187.19 146.544 198.283 140.109 212.312C138.136 216.613 132.255 228.063 138.267 231.602C140.32 232.81 143.04 232.18 144.96 230.771C146.881 229.362 148.207 227.312 149.609 225.387C152.13 221.926 155.017 218.748 157.976 215.653C166.3 206.946 175.876 199 185.083 191.028C194.197 183.137 215.853 168.885 206.614 155.829Z" fill="#7E9B6E"/>
<path d="M120.725 285.654C126.159 249.838 141.82 215.678 165.195 188.024C174.363 177.178 184.237 167.693 195.562 159.115" stroke="#54683C" stroke-width="1.5" stroke-miterlimit="10" stroke-linejoin="round"/>
<path d="M89.7392 127.279C87.1452 120.283 84.2552 113.403 80.8702 106.825C79.9082 104.956 78.8952 103.112 77.8242 101.303C74.9532 96.4545 71.5082 91.6695 66.7032 88.5725C62.3182 85.7465 56.1952 86.0645 53.3962 90.9375C51.0482 95.0235 50.8892 100.469 51.6152 105.015C53.5822 117.335 60.3412 130.215 65.5802 141.453C72.1502 155.546 79.4122 169.371 86.2432 183.359C88.3182 187.607 94.2492 196.571 99.9772 191.665C103.391 188.741 103.452 182.296 103.179 178.228C102.011 160.825 95.7622 143.522 89.7392 127.279Z" fill="#A8C38B"/>
<path d="M64.1719 101.743C86.5939 148.484 108.869 202.156 109.956 277.244" stroke="#54683C" stroke-width="1.5" stroke-miterlimit="10" stroke-linejoin="round"/>
<path d="M89.0991 232.942C83.0121 213.705 75.0541 195.306 66.6581 176.985C62.1291 167.101 56.5291 156.762 46.3191 151.751C41.1371 149.208 34.2671 148.996 30.1271 153.019C27.7671 155.313 26.6361 158.661 26.5061 161.95C26.3771 165.239 27.1641 168.497 28.1781 171.628C32.2011 184.04 39.7541 193.956 46.8791 204.68C54.5561 216.235 61.8051 228.074 68.6061 240.165C71.9211 246.059 79.8851 262.786 88.9361 256.563C95.0281 252.376 90.8011 238.32 89.0991 232.942Z" fill="#7E9B6E"/>
<path d="M46.8184 170.61C56.8804 189.792 66.3944 209.263 75.3424 228.989C83.2344 246.387 90.7494 264.191 93.9394 283.028" stroke="#54683C" stroke-width="1.5" stroke-miterlimit="10" stroke-linejoin="round"/>
<path d="M72.7753 208.411C63.3863 199.809 52.6893 192.666 41.1883 186.849C30.6043 181.496 18.1003 178.983 6.75226 182.431C3.77526 183.335 0.527265 185.116 0.0562649 188.192C-0.361735 190.921 1.62026 193.403 3.64826 195.275C16.8763 207.482 36.1973 210.076 51.9033 218.869C58.3633 222.486 63.9833 227.852 70.0903 232.202C74.4203 235.286 85.5553 242.736 91.0143 238.765C93.1243 237.23 93.2823 234.646 92.4293 232.387C89.0143 223.339 79.7423 214.794 72.7753 208.411Z" fill="#A8C38B"/>
<path d="M15.0176 193.315C49.2476 194.901 82.0636 216.004 96.2936 249.487C100.514 259.417 102.848 270.439 105.412 280.96" stroke="#54683C" stroke-width="1.5" stroke-miterlimit="10" stroke-linejoin="round"/>
<path d="M141.943 198.938C137.337 201.625 132.853 204.701 129.489 208.839C128.027 210.637 126.832 213.854 128.858 215.745C132.346 219.003 140.328 214.017 144.007 212.853C164.646 206.325 187.488 209.07 207.34 199.776C209.343 198.838 211.328 197.74 212.803 196.09C214.974 193.66 215.496 190.803 213.823 187.868C212.1 184.847 209.075 183.998 205.801 183.783C183.577 182.326 161.204 187.829 141.943 198.938Z" fill="#A8C38B"/>
<path d="M106.584 272.154C106.733 245.21 115.944 222.941 137.46 207.521C155.02 194.936 187.383 188.155 208.861 190.492" stroke="#54683C" stroke-width="1.5" stroke-miterlimit="10" stroke-linejoin="round"/>
<path d="M133.21 270.566H82.4395V328.357H133.21V270.566Z" fill="#E0CDCD"/>
<path d="M75.1797 328.357H140.472" stroke="#EDDF79" stroke-width="2" stroke-miterlimit="10"/>
<path d="M152.724 414.781L137.093 305.138C136.687 302.289 134.247 300.172 131.369 300.172H84.2808C81.4028 300.172 78.9628 302.289 78.5568 305.138L62.9258 414.781" stroke="#EDDF79" stroke-width="2" stroke-miterlimit="10"/>
<path d="M137.112 353.761C129.518 353.761 121.223 360.405 117.713 371.068L104.484 414.781H220.016L228.461 353.761C228.461 353.761 144.706 353.761 137.112 353.761Z" fill="#D1C35C"/>
<path d="M115.932 376.139H207.43" stroke="#2A282C" stroke-width="1.5" stroke-miterlimit="10" stroke-linejoin="round"/>
<path d="M163.088 354.283L165.61 345.103C166.427 342.129 169.131 340.068 172.215 340.068H194.947C198.276 340.068 200.691 343.236 199.809 346.446L197.656 354.283" stroke="#D1C35C" stroke-width="2" stroke-miterlimit="10"/>
<path d="M169.441 384.27H150.652L151.923 380.232H170.712L169.441 384.27Z" stroke="#2A282C" stroke-width="1.5" stroke-miterlimit="10" stroke-linejoin="round"/>
<path d="M195.734 414.781L208.963 371.068C211.341 363.271 217.431 357.162 225.22 354.76L228.46 353.761" stroke="#2A282C" stroke-width="1.5" stroke-miterlimit="10" stroke-linejoin="round"/>
<path d="M89.3379 414.781H637.417" stroke="black" stroke-width="1.5" stroke-miterlimit="10"/>
<path d="M36.7383 414.781H76.8453" stroke="black" stroke-width="1.5" stroke-miterlimit="10"/>
</svg>
